Patient4_TMGait_0pt8_01_left_24_EMG.mot
version=1
nRows=30
nColumns=33
inDegrees=no
endheader
time	1LAddLong	2LGlutMax	3LGlutMed	4LIliopsoas	5LSemiMemb	6LBicFemLong	7LRecFem	8LVastMed	9LVastLat	10LGasMed	11LTibAnt	12lTibPost	13LPeroneusLong	14LSol	15LExtDigLong	16LFlexDigLong	17RAddLong	18RGlutMax	19RGlutMed	20RIliopsoas	21RSemiMemb	22RBicFemLong	23RRecFem	24RVastMed	25RVastLat	26RGasMed	27RTibAnt	28RTibPost	29RPeroneusLong	30RSol	31RExtDigLong	32RFlexDigLong
26.595	-0.042419	0.51331	-0.14587	0.02594	-0.24933	0.69031	0.46295	-0.004272	-0.44052	-0.002899	0.032501	0.018616	-0.092621	-0.047607	-0.16281	0.016327	0.041351	-0.63004	-0.50903	-0.12283	-0.085449	-0.055542	0.78247	-0.00061	-0.035706	-0.007782	0.14664	-0.017395	-0.08667	-0.078583	-0.003204	-0.013733
26.596	-0.042572	0.41763	-0.22919	0.012817	-0.25299	0.68573	0.38711	-0.017548	-0.62164	-0.065308	-0.040436	0.023041	0.27954	-0.13168	-0.18692	0.027771	0.12299	-0.6633	-0.55069	-0.071716	-0.084686	-0.070343	0.85464	0.005493	-0.043793	-0.006714	0.052643	-0.090332	-0.20432	0.03952	-0.001678	-0.01358
26.597	0.008087	0.34729	-0.19333	-0.017548	-0.084229	0.42007	0.28549	-0.010986	-0.6929	-0.11444	-0.055542	0.039673	0.74112	-0.27084	-0.15762	0.032806	0.13992	-0.55649	-0.64957	-0.072327	-0.080566	-0.075531	0.89829	0.051575	-0.064087	-0.005188	-0.062866	-0.039368	-0.13214	-0.010376	-0.002136	-0.022125
26.598	0.019684	0.31998	-0.061646	-0.028687	0.10559	-0.13809	0.29221	0.00061	-0.52917	-0.065155	-0.017853	0.055695	0.39032	-0.20233	-0.005035	0.024414	0.12054	-0.55634	-0.6398	-0.09903	-0.070496	-0.071716	0.90515	0.009918	-0.054626	0.005493	-0.42633	0.039063	-0.003662	0.20096	0.000305	-0.010071
26.599	0.027618	0.30853	-0.17654	0.004272	0.15076	-0.2739	0.17609	0.026245	-0.42801	-0.013123	0.029907	0.056915	0.11139	-0.014648	0.21027	0.042267	0.12222	-0.53268	-0.65033	-0.12955	-0.069885	-0.060425	0.8989	-0.008087	-0.061035	0.02182	-0.3801	0.036926	0.21576	0.29968	-0.003662	-0.011902
26.6	0.02655	0.31128	-0.19012	0.011749	0.10254	-0.75256	0.18204	0.03067	-0.25314	0.025787	-0.00061	0.069733	-0.098724	0.036011	0.20096	0.02655	0.094299	-0.49805	-0.63034	-0.095367	-0.065613	-0.073547	0.93536	0.011749	-0.041504	0.01709	-0.63828	0.092773	0.41885	0.37521	-0.001068	-0.016479
26.601	0.025482	0.30197	-0.17807	0.01297	0.088501	-0.92545	0.18784	0.035095	-0.22369	0.065002	0.03891	0.076141	-0.4924	-0.077667	0.14832	0.012512	0.082092	-0.40787	-0.63095	0.003204	-0.068054	-0.065308	0.9201	-0.032654	-0.034485	0.014648	-0.24597	-0.32364	0.18433	0.29739	0.000153	-0.013885
26.602	0.022888	0.32471	-0.073547	0.010071	0.071869	-0.6369	0.15167	0.030212	-0.26276	0.068207	0.049438	0.099182	-0.17364	-0.22461	0.06958	0.002747	0.094757	-0.31494	-0.63339	0.10239	-0.063019	-0.062103	0.96817	-0.024567	-0.01297	0.013733	-0.034332	0.112	-0.006561	0.17456	-0.003204	-0.005646
26.603	0.040741	0.3392	-0.039673	0.020599	0.04837	-0.5777	0.094452	0.006409	-0.28076	-0.010376	-0.007629	0.10803	0.069427	-0.17807	0.075073	-0.003662	0.074768	-0.2858	-0.67658	0.084839	-0.048065	-0.042725	0.91126	-0.018768	0.014801	0.007019	0.15564	0.11337	0.015411	0.13214	-0.001831	-0.008545
26.604	0.045319	0.4393	-0.046844	0.026093	0.017242	-0.62866	-0.008087	-0.014954	-0.43182	0.03479	0.069275	0.10452	0.24674	-0.19226	-0.002594	-0.013733	0.086823	-0.29633	-0.71259	0.092316	-0.02533	-0.035858	0.77957	-0.010223	-0.001984	0.015869	0.3096	0.009918	0.15488	0.048676	-0.007019	-0.007477
26.605	0.043488	0.54275	-0.021973	0.002594	0.005951	-0.39642	0.059357	-0.026855	-0.63294	0.039825	0.057068	0.11887	0.16434	0.052338	0.014648	-0.01358	0.079803	-0.27969	-0.71854	0.070801	-0.004272	-0.020447	0.63202	-0.045471	-0.022583	0.005798	-0.090027	-0.001831	0.2298	-0.11581	-0.002289	-0.006409
26.606	0.023499	0.61813	0.053101	-0.016327	-0.044098	-0.12695	0.12329	-0.009613	-0.72174	0.005798	0.040131	0.13077	0.59113	0.11139	-0.012054	-0.002136	0.1088	-0.18326	-0.71426	0.034485	-0.002136	0.022888	0.62195	-0.022278	-0.011597	0.006714	-0.27817	-0.031128	0.27313	-0.29175	-0.003052	-0.001678
26.607	0.016785	0.59479	0.052643	-0.011444	-0.0383	0.016785	-0.00351	0.006866	-0.70053	0.045624	0.055542	0.13763	0.26093	0.11398	0.10056	-0.00946	0.065002	-0.18692	-0.65384	0.001678	-0.020752	0.15411	0.62607	-0.041199	-0.018921	0.012512	0.062408	-0.027618	0.21423	-0.32715	-0.003357	0.000763
26.608	0.022278	0.6311	0.13321	0.007477	-0.017395	0.18829	-0.2626	0.009766	-0.63232	0.077057	0.057678	0.14206	-0.72006	0.13168	0.11414	-0.022278	0.00824	-0.04425	-0.70892	0.012665	-0.009003	0.1535	0.69473	-0.029755	-0.021973	0.009613	0.22736	-0.027618	0.14801	-0.24414	-0.001831	-0.003357
26.609	0.009155	0.79208	0.22949	-0.011902	-0.034027	0.30563	-0.36438	0.01236	-0.47607	0.003052	0.041199	0.15579	-0.38742	0.31555	0.050507	-0.010834	-0.041199	0.17258	-0.68924	-0.068665	0.004578	0.10162	0.75302	0.001526	-0.019684	0.003204	-0.35858	-0.030365	0.056915	-0.16617	-0.001984	-0.005188
26.61	0.004272	0.85831	0.41504	-0.00824	-0.086975	0.43366	-0.34241	0.022125	-0.35126	-0.014801	0.016632	0.15228	-0.22827	0.3035	-0.10544	-0.034485	-0.085754	0.23819	-0.76645	-0.14771	0.003357	0.067444	0.77972	-0.010834	-0.027313	-0.001526	-0.63141	-0.027771	-0.042267	-0.16861	-0.004425	-0.00885
26.611	-0.002136	0.91538	0.40146	-0.022125	-0.10162	0.67246	-0.36682	0.041046	-0.22553	0.023346	-0.010223	0.15381	-0.11276	0.20508	-0.21545	-0.033875	-0.10178	0.2594	-0.81558	-0.11551	-0.001068	0.019531	0.84518	-0.019379	-0.026855	0	-0.3566	-0.024872	0.025787	-0.1889	-0.003052	-0.014343
26.612	0.007935	0.93765	0.29266	0.015564	-0.13763	0.72327	-0.41031	0.071564	-0.12619	0.045929	0.029144	0.1413	-0.51636	0.2327	-0.061188	-0.040741	-0.11749	0.30945	-0.71747	-0.033722	-0.026855	0.025024	0.92712	-0.002441	-0.008392	0.006561	-0.19531	-0.023651	0.11215	-0.23758	-0.00351	-0.001678
26.613	0.018921	0.84915	0.10773	0.036163	-0.071259	0.61676	-0.41794	0.076599	-0.16663	0.14954	0.11383	0.13748	0.36118	0.23453	0.060425	-0.027771	-0.083618	0.38315	-0.63797	0.023193	-0.052795	0.095367	0.85815	-0.031738	0.003967	0.011444	-0.075989	-0.030823	0.1889	-0.27679	-0.000763	0.000305
26.614	0.020294	0.59586	-0.17273	0.004883	-0.016022	0.55313	-0.47714	0.029449	-0.088654	0.077362	0.039978	0.1384	0.63812	0.03479	-0.00824	-0.014496	-0.048828	0.37476	-0.63339	0.12299	-0.036621	0.076752	0.82306	-0.059204	-0.035095	0.017395	0.086212	-0.020599	0.29236	-0.36133	0.000916	-0.006714
26.615	0.015869	0.52078	-0.16571	-0.007935	0.000458	0.015106	-0.59174	0.011292	0.055695	0.056458	-0.007172	0.14023	0.069122	-0.059814	-0.032196	-0.02655	-0.023651	0.37064	-0.76706	0.23148	-0.042725	0.053864	0.82596	-0.12299	-0.053406	0.018158	-0.039063	-0.02243	0.20187	-0.3978	-0.002899	-0.01297
26.616	0.01297	0.46387	-0.03006	0.00824	-0.036621	-0.29755	-0.68359	-0.035248	0.27878	0.064697	0.035553	0.15808	-0.17105	-0.13199	-0.065613	-0.020447	-0.010529	0.37491	-0.90027	0.14877	-0.051117	0.065765	0.83115	-0.11353	-0.062256	0.011444	-0.72449	-0.018005	0.060272	-0.2182	-0.003662	-0.01236
26.617	0.002594	0.43839	-0.11704	0.000305	0.001221	-0.37445	-0.63477	-0.03891	0.37445	0.009308	0.002136	0.15869	0.25559	-0.12207	-0.067444	-0.022736	-0.007935	0.42404	-0.90469	0.016632	-0.054626	0.083008	0.77866	-0.027008	-0.047302	0.012665	-0.30884	-0.026398	0.10101	0.03006	-0.006561	0.009308
26.618	0.002747	0.50323	-0.17395	0.00473	0.039063	-0.29862	-0.39688	-0.032043	0.30502	0.10193	0.008545	0.14069	-0.1799	-0.383	-0.16037	-0.01236	-0.026855	0.35019	-1.1284	-0.046997	-0.029297	0.11978	0.60501	0.028229	-0.036926	0.016022	0.40344	-0.027771	0.17044	0.15686	0	-0.015259
26.619	0.016174	0.62454	-0.20386	0.014343	0.047455	-0.12863	-0.25467	-0.007477	0.10986	0.13901	-0.005341	0.10864	-0.44708	-0.17487	-0.12787	0	-0.036011	0.40512	-0.91354	-0.13046	-0.000458	0.13763	0.58151	-0.029755	-0.040131	0.003967	0.023499	-0.018616	0.11902	0.3595	-0.004272	-0.007172
26.62	0.008087	0.77164	-0.26886	-0.01236	0.03067	0.10956	-0.31586	-0.019226	0.034332	0.12955	-0.028687	0.078278	-0.38437	0.077515	-0.049591	-0.010223	0.000763	0.39749	-0.87555	-0.17334	0.014343	0.070648	0.62027	-0.053558	-0.039368	0.000153	-0.90118	-0.017548	0.072174	0.4274	-0.003662	-0.007019
26.621	0.002289	0.92041	-0.14938	-0.012817	-0.003662	0.34576	-0.27542	-0.049896	0.14603	0.12451	-0.039825	0.04715	0.17288	0.096588	-0.088043	-0.014343	0.007782	0.36987	-1.2361	-0.13245	0.028992	0.015259	0.72555	-0.10391	-0.053253	-0.004883	-0.86258	-0.024414	0.041809	0.35294	-0.002136	-0.012512
26.622	0	0.94055	-0.12146	0.026093	-0.02594	0.53375	-0.27023	-0.049744	0.26062	0.11688	-0.016479	0.026245	0.11459	0.26871	0.06958	-0.00946	0.045929	0.30762	-1.4714	0.019226	0.068512	-0.085144	0.75821	-0.16022	-0.070343	-0.006714	-0.3447	-0.023651	0.039978	0.2475	-0.002289	-0.005798
26.623	-0.004883	1.0196	-0.13092	0.026398	-0.053253	0.58121	-0.23911	-0.015717	0.23346	0.15381	0.002899	0.004425	-0.092621	0.27176	0.10178	-0.010986	0.057983	0.31082	-1.3077	0.16647	0.042114	-0.05127	0.80719	-0.20844	-0.079346	0.000153	-0.14893	-0.024261	0.068665	0.22537	-0.00412	-0.013733
26.624	-0.005341	1.1092	0.010223	0.03006	-0.06897	0.41229	-0.20783	-0.009003	0.07782	0.14389	0.018616	-0.020599	-0.15945	0.011902	0.11658	-0.00885	0.06958	0.5043	-1.2827	0.30701	0.003052	-0.031891	0.67368	-0.31876	-0.063477	-0.000458	-0.072479	-0.014343	0.055542	0.14999	-0.006714	-0.007019
